<?xml version="1.0" encoding="UTF-8" standalone="no"?><svg xmlns="http://www.w3.org/2000/svg" xmlns:xlink="http://www.w3.org/1999/xlink" contentScriptType="application/ecmascript" contentStyleType="text/css" height="670px" preserveAspectRatio="none" style="width:652px;height:670px;background:#FFFFFF;" version="1.1" viewBox="0 0 652 670" width="652px" zoomAndPan="magnify"><defs><filter height="300%" id="f1c79t9saboctn" width="300%" x="-1" y="-1"><feGaussianBlur result="blurOut" stdDeviation="2.0"/><feColorMatrix in="blurOut" result="blurOut2" type="matrix" values="0 0 0 0 0 0 0 0 0 0 0 0 0 0 0 0 0 0 .4 0"/><feOffset dx="4.0" dy="4.0" in="blurOut2" result="blurOut3"/><feBlend in="SourceGraphic" in2="blurOut3" mode="normal"/></filter></defs><g><rect fill="#87CEEB" filter="url(#f1c79t9saboctn)" height="143.2656" rx="12.5" ry="12.5" style="stroke:#A80036;stroke-width:1.5;" width="160" x="10" y="262.4492"/><text fill="#000000" font-family="sans-serif" font-size="14" font-weight="bold" lengthAdjust="spacing" textLength="79" x="20" y="286.9824">globalState</text><text fill="#000000" font-family="sans-serif" font-size="14" font-weight="bold" lengthAdjust="spacing" textLength="128" x="20" y="304.5918">combineReducers</text><text fill="#000000" font-family="sans-serif" font-size="14" lengthAdjust="spacing" textLength="10" x="148" y="304.5918">({</text><text fill="#000000" font-family="sans-serif" font-size="14" lengthAdjust="spacing" textLength="95" x="20" y="322.2012">franchiseState,</text><text fill="#000000" font-family="sans-serif" font-size="14" lengthAdjust="spacing" textLength="109" x="28" y="339.8105">directOrderState,</text><text fill="#000000" font-family="sans-serif" font-size="14" lengthAdjust="spacing" textLength="132" x="28" y="357.4199">stockReportingState,</text><text fill="#000000" font-family="sans-serif" font-size="14" lengthAdjust="spacing" textLength="120" x="28" y="375.0293">fixtureCatalogState</text><text fill="#000000" font-family="sans-serif" font-size="14" lengthAdjust="spacing" textLength="10" x="20" y="392.6387">})</text><rect fill="#FEFECE" filter="url(#f1c79t9saboctn)" height="37.6094" rx="12.5" ry="12.5" style="stroke:#A80036;stroke-width:1.5;" width="100" x="220" y="20"/><text fill="#000000" font-family="sans-serif" font-size="14" font-weight="bold" lengthAdjust="spacing" textLength="80" x="230" y="44.5332">configState</text><path d="M170,334.082 L180,334.082 C195,334.082 195,38.8047 210,38.8047 L220,38.8047 " fill="none" style="stroke:#000000;stroke-width:1.0;"/><rect fill="#008000" filter="url(#f1c79t9saboctn)" height="108.0469" rx="12.5" ry="12.5" style="stroke:#A80036;stroke-width:1.5;" width="158" x="220" y="77.6094"/><text fill="#000000" font-family="sans-serif" font-size="14" font-weight="bold" lengthAdjust="spacing" textLength="106" x="230" y="102.1426">FranchiseState</text><text fill="#000000" font-family="sans-serif" font-size="14" font-weight="bold" lengthAdjust="spacing" textLength="128" x="230" y="119.752">combineReducers</text><text fill="#000000" font-family="sans-serif" font-size="14" lengthAdjust="spacing" textLength="10" x="358" y="119.752">({</text><text fill="#000000" font-family="sans-serif" font-size="14" lengthAdjust="spacing" textLength="94" x="238" y="137.3613">consolidations,</text><text fill="#000000" font-family="sans-serif" font-size="14" lengthAdjust="spacing" textLength="126" x="238" y="154.9707">consolidationDetails</text><text fill="#000000" font-family="sans-serif" font-size="14" lengthAdjust="spacing" textLength="10" x="230" y="172.5801">})</text><rect fill="#7CFC00" filter="url(#f1c79t9saboctn)" height="55.2188" rx="12.5" ry="12.5" style="stroke:#A80036;stroke-width:1.5;" width="162" x="428" y="66.4141"/><text fill="#000000" font-family="sans-serif" font-size="14" font-weight="bold" lengthAdjust="spacing" textLength="105" x="438" y="90.9473">Consolidations</text><text fill="#000000" font-family="sans-serif" font-size="14" lengthAdjust="spacing" textLength="142" x="438" y="108.5566">-ConsolidationsSlice.js</text><path d="M378,131.6328 L388,131.6328 C403,131.6328 403,94.0234 418,94.0234 L428,94.0234 " fill="none" style="stroke:#000000;stroke-width:1.0;"/><rect fill="#90EE90" filter="url(#f1c79t9saboctn)" height="55.2188" rx="12.5" ry="12.5" style="stroke:#A80036;stroke-width:1.5;" width="205" x="428" y="141.6328"/><text fill="#000000" font-family="sans-serif" font-size="14" font-weight="bold" lengthAdjust="spacing" textLength="153" x="438" y="166.166">ConsolidationsDetails</text><text fill="#000000" font-family="sans-serif" font-size="14" lengthAdjust="spacing" textLength="185" x="438" y="183.7754">-ConsolidationsDetailsSlice.js</text><path d="M378,131.6328 L388,131.6328 C403,131.6328 403,169.2422 418,169.2422 L428,169.2422 " fill="none" style="stroke:#000000;stroke-width:1.0;"/><path d="M170,334.082 L180,334.082 C195,334.082 195,131.6328 210,131.6328 L220,131.6328 " fill="none" style="stroke:#000000;stroke-width:1.0;"/><rect fill="#FFFF00" filter="url(#f1c79t9saboctn)" height="108.0469" rx="12.5" ry="12.5" style="stroke:#A80036;stroke-width:1.5;" width="158" x="220" y="228.0469"/><text fill="#000000" font-family="sans-serif" font-size="14" font-weight="bold" lengthAdjust="spacing" textLength="118" x="230" y="252.5801">directOrderState</text><text fill="#000000" font-family="sans-serif" font-size="14" font-weight="bold" lengthAdjust="spacing" textLength="128" x="230" y="270.1895">combineReducers</text><text fill="#000000" font-family="sans-serif" font-size="14" lengthAdjust="spacing" textLength="10" x="358" y="270.1895">({</text><text fill="#000000" font-family="sans-serif" font-size="14" lengthAdjust="spacing" textLength="43" x="238" y="287.7988">state1,</text><text fill="#000000" font-family="sans-serif" font-size="14" lengthAdjust="spacing" textLength="39" x="238" y="305.4082">state2</text><text fill="#000000" font-family="sans-serif" font-size="14" lengthAdjust="spacing" textLength="10" x="230" y="323.0176">})</text><rect fill="#FFD700" filter="url(#f1c79t9saboctn)" height="55.2188" rx="12.5" ry="12.5" style="stroke:#A80036;stroke-width:1.5;" width="110" x="428" y="216.8516"/><text fill="#000000" font-family="sans-serif" font-size="14" font-weight="bold" lengthAdjust="spacing" textLength="44" x="438" y="241.3848">State1</text><text fill="#000000" font-family="sans-serif" font-size="14" lengthAdjust="spacing" textLength="90" x="438" y="258.9941">-State1Slice.js</text><path d="M378,282.0703 L388,282.0703 C403,282.0703 403,244.4609 418,244.4609 L428,244.4609 " fill="none" style="stroke:#000000;stroke-width:1.0;"/><rect fill="#DAA520" filter="url(#f1c79t9saboctn)" height="55.2188" rx="12.5" ry="12.5" style="stroke:#A80036;stroke-width:1.5;" width="110" x="428" y="292.0703"/><text fill="#000000" font-family="sans-serif" font-size="14" font-weight="bold" lengthAdjust="spacing" textLength="44" x="438" y="316.6035">State2</text><text fill="#000000" font-family="sans-serif" font-size="14" lengthAdjust="spacing" textLength="90" x="438" y="334.2129">-State2Slice.js</text><path d="M378,282.0703 L388,282.0703 C403,282.0703 403,319.6797 418,319.6797 L428,319.6797 " fill="none" style="stroke:#000000;stroke-width:1.0;"/><path d="M170,334.082 L180,334.082 C195,334.082 195,282.0703 210,282.0703 L220,282.0703 " fill="none" style="stroke:#000000;stroke-width:1.0;"/><rect fill="#808080" filter="url(#f1c79t9saboctn)" height="108.0469" rx="12.5" ry="12.5" style="stroke:#A80036;stroke-width:1.5;" width="164" x="220" y="378.4844"/><text fill="#000000" font-family="sans-serif" font-size="14" font-weight="bold" lengthAdjust="spacing" textLength="144" x="230" y="403.0176">stockReportingState</text><text fill="#000000" font-family="sans-serif" font-size="14" font-weight="bold" lengthAdjust="spacing" textLength="128" x="230" y="420.627">combineReducers</text><text fill="#000000" font-family="sans-serif" font-size="14" lengthAdjust="spacing" textLength="10" x="358" y="420.627">({</text><text fill="#000000" font-family="sans-serif" font-size="14" lengthAdjust="spacing" textLength="43" x="238" y="438.2363">state1,</text><text fill="#000000" font-family="sans-serif" font-size="14" lengthAdjust="spacing" textLength="39" x="238" y="455.8457">state2</text><text fill="#000000" font-family="sans-serif" font-size="14" lengthAdjust="spacing" textLength="10" x="230" y="473.4551">})</text><rect fill="#D3D3D3" filter="url(#f1c79t9saboctn)" height="55.2188" rx="12.5" ry="12.5" style="stroke:#A80036;stroke-width:1.5;" width="110" x="434" y="367.2891"/><text fill="#000000" font-family="sans-serif" font-size="14" font-weight="bold" lengthAdjust="spacing" textLength="44" x="444" y="391.8223">State1</text><text fill="#000000" font-family="sans-serif" font-size="14" lengthAdjust="spacing" textLength="90" x="444" y="409.4316">-State1Slice.js</text><path d="M384,432.5078 L394,432.5078 C409,432.5078 409,394.8984 424,394.8984 L434,394.8984 " fill="none" style="stroke:#000000;stroke-width:1.0;"/><rect fill="#DCDCDC" filter="url(#f1c79t9saboctn)" height="55.2188" rx="12.5" ry="12.5" style="stroke:#A80036;stroke-width:1.5;" width="110" x="434" y="442.5078"/><text fill="#000000" font-family="sans-serif" font-size="14" font-weight="bold" lengthAdjust="spacing" textLength="44" x="444" y="467.041">State2</text><text fill="#000000" font-family="sans-serif" font-size="14" lengthAdjust="spacing" textLength="90" x="444" y="484.6504">-State2Slice.js</text><path d="M384,432.5078 L394,432.5078 C409,432.5078 409,470.1172 424,470.1172 L434,470.1172 " fill="none" style="stroke:#000000;stroke-width:1.0;"/><path d="M170,334.082 L180,334.082 C195,334.082 195,432.5078 210,432.5078 L220,432.5078 " fill="none" style="stroke:#000000;stroke-width:1.0;"/><rect fill="#FFC0CB" filter="url(#f1c79t9saboctn)" height="108.0469" rx="12.5" ry="12.5" style="stroke:#A80036;stroke-width:1.5;" width="158" x="220" y="528.9219"/><text fill="#000000" font-family="sans-serif" font-size="14" font-weight="bold" lengthAdjust="spacing" textLength="135" x="230" y="553.4551">fixtureCatalogState</text><text fill="#000000" font-family="sans-serif" font-size="14" font-weight="bold" lengthAdjust="spacing" textLength="128" x="230" y="571.0645">combineReducers</text><text fill="#000000" font-family="sans-serif" font-size="14" lengthAdjust="spacing" textLength="10" x="358" y="571.0645">({</text><text fill="#000000" font-family="sans-serif" font-size="14" lengthAdjust="spacing" textLength="43" x="238" y="588.6738">state1,</text><text fill="#000000" font-family="sans-serif" font-size="14" lengthAdjust="spacing" textLength="39" x="238" y="606.2832">state2</text><text fill="#000000" font-family="sans-serif" font-size="14" lengthAdjust="spacing" textLength="10" x="230" y="623.8926">})</text><rect fill="#DDA0DD" filter="url(#f1c79t9saboctn)" height="55.2188" rx="12.5" ry="12.5" style="stroke:#A80036;stroke-width:1.5;" width="110" x="428" y="517.7266"/><text fill="#000000" font-family="sans-serif" font-size="14" font-weight="bold" lengthAdjust="spacing" textLength="44" x="438" y="542.2598">State1</text><text fill="#000000" font-family="sans-serif" font-size="14" lengthAdjust="spacing" textLength="90" x="438" y="559.8691">-State1Slice.js</text><path d="M378,582.9453 L388,582.9453 C403,582.9453 403,545.3359 418,545.3359 L428,545.3359 " fill="none" style="stroke:#000000;stroke-width:1.0;"/><rect fill="#D8BFD8" filter="url(#f1c79t9saboctn)" height="55.2188" rx="12.5" ry="12.5" style="stroke:#A80036;stroke-width:1.5;" width="110" x="428" y="592.9453"/><text fill="#000000" font-family="sans-serif" font-size="14" font-weight="bold" lengthAdjust="spacing" textLength="44" x="438" y="617.4785">State2</text><text fill="#000000" font-family="sans-serif" font-size="14" lengthAdjust="spacing" textLength="90" x="438" y="635.0879">-State2Slice.js</text><path d="M378,582.9453 L388,582.9453 C403,582.9453 403,620.5547 418,620.5547 L428,620.5547 " fill="none" style="stroke:#000000;stroke-width:1.0;"/><path d="M170,334.082 L180,334.082 C195,334.082 195,582.9453 210,582.9453 L220,582.9453 " fill="none" style="stroke:#000000;stroke-width:1.0;"/><!--MD5=[08d3a0ee461e0f7c2facbe68a8b88b8c]
@startmindmap redux 
skinparam SequenceMessageAlignment center
skinparam classFontColor red

skinparam sequence {
ArrowColor black
}
skinparam State {
  BorderColor Gray
}

*[#SkyBlue]:**globalState**
**combineReducers**({
franchiseState, 
  directOrderState,
  stockReportingState,
  fixtureCatalogState
});
** **configState**
**[#green]:**FranchiseState**
**combineReducers**({
  consolidations, 
  consolidationDetails
});
***[#LawnGreen]:**Consolidations**
-ConsolidationsSlice.js;
***[#LightGreen]:**ConsolidationsDetails**
-ConsolidationsDetailsSlice.js;
**[#yellow]:**directOrderState**
**combineReducers**({
  state1, 
  state2
});
***[#Gold]:**State1**
-State1Slice.js;
***[#GoldenRod]:**State2**
-State2Slice.js;
**[#grey]:**stockReportingState**
**combineReducers**({
  state1, 
  state2
});
***[#LightGray]:**State1**
-State1Slice.js;
***[#Gainsboro]:**State2**
-State2Slice.js;
**[#pink]:**fixtureCatalogState**
**combineReducers**({
  state1, 
  state2
});
***[#plum]:**State1**
-State1Slice.js;
***[#Thistle]:**State2**
-State2Slice.js;
@endmindmap

PlantUML version 1.2021.7(Sun May 23 14:40:07 CEST 2021)
(GPL source distribution)
Java Runtime: Java(TM) SE Runtime Environment
JVM: Java HotSpot(TM) 64-Bit Server VM
Default Encoding: Cp1252
Language: fr
Country: FR
--></g></svg>