<?xml version="1.0" encoding="UTF-8" standalone="no"?><svg xmlns="http://www.w3.org/2000/svg" xmlns:xlink="http://www.w3.org/1999/xlink" contentScriptType="application/ecmascript" contentStyleType="text/css" height="583px" preserveAspectRatio="none" style="width:1543px;height:583px;background:#FFFFFF;" version="1.1" viewBox="0 0 1543 583" width="1543px" zoomAndPan="magnify"><defs><filter height="300%" id="fyyxp3ifdwpmn" width="300%" x="-1" y="-1"><feGaussianBlur result="blurOut" stdDeviation="2.0"/><feColorMatrix in="blurOut" result="blurOut2" type="matrix" values="0 0 0 0 0 0 0 0 0 0 0 0 0 0 0 0 0 0 .4 0"/><feOffset dx="4.0" dy="4.0" in="blurOut2" result="blurOut3"/><feBlend in="SourceGraphic" in2="blurOut3" mode="normal"/></filter></defs><g><text fill="#000000" font-family="sans-serif" font-size="18" lengthAdjust="spacing" textLength="397" x="566.5" y="18.6855">Découpage composants en référence à notre IHM</text><!--MD5=[24bd3b0b0d9af40988f2a5a45d9ba3b4]
cluster My business/components--><polygon fill="#FFFFFF" filter="url(#fyyxp3ifdwpmn)" points="104,28.6406,289,28.6406,296,52.25,464,52.25,464,344.6406,104,344.6406,104,28.6406" style="stroke:#000000;stroke-width:1.5;"/><line style="stroke:#000000;stroke-width:1.5;" x1="104" x2="296" y1="52.25" y2="52.25"/><text fill="#000000" font-family="sans-serif" font-size="14" font-weight="bold" lengthAdjust="spacing" textLength="179" x="108" y="45.1738">My business/components</text><!--MD5=[b6a89fbef67441cc640b0dcdd15e4711]
cluster MyBusiness/Features--><polygon fill="#FFFFFF" filter="url(#fyyxp3ifdwpmn)" points="488,28.6406,646,28.6406,653,52.25,803,52.25,803,236.6406,488,236.6406,488,28.6406" style="stroke:#000000;stroke-width:1.5;"/><line style="stroke:#000000;stroke-width:1.5;" x1="488" x2="653" y1="52.25" y2="52.25"/><text fill="#000000" font-family="sans-serif" font-size="14" font-weight="bold" lengthAdjust="spacing" textLength="152" x="492" y="45.1738">MyBusiness/Features</text><!--MD5=[0bfe71e857788d593d282c00510e1e60]
cluster MyBusiness/components/Header/components--><polygon fill="#FFFFFF" filter="url(#fyyxp3ifdwpmn)" points="16,368.6406,344,368.6406,351,392.25,354,392.25,354,576.6406,16,576.6406,16,368.6406" style="stroke:#000000;stroke-width:1.5;"/><line style="stroke:#000000;stroke-width:1.5;" x1="16" x2="351" y1="392.25" y2="392.25"/><text fill="#000000" font-family="sans-serif" font-size="14" font-weight="bold" lengthAdjust="spacing" textLength="322" x="20" y="385.1738">MyBusiness/components/Header/components</text><!--MD5=[02b363f49d5183bdf5530dad10f92a43]
cluster MyBusiness/components/SideBar/components--><polygon fill="#FFFFFF" filter="url(#fyyxp3ifdwpmn)" points="827,28.6406,1159,28.6406,1166,52.25,1169,52.25,1169,128.6406,827,128.6406,827,28.6406" style="stroke:#000000;stroke-width:1.5;"/><line style="stroke:#000000;stroke-width:1.5;" x1="827" x2="1166" y1="52.25" y2="52.25"/><text fill="#000000" font-family="sans-serif" font-size="14" font-weight="bold" lengthAdjust="spacing" textLength="326" x="831" y="45.1738">MyBusiness/components/SideBar/components</text><!--MD5=[7de39b393da648a8c15e43b2dc1e6f58]
cluster MyBusiness/components/Table/components--><polygon fill="#FFFFFF" filter="url(#fyyxp3ifdwpmn)" points="378,368.6406,693,368.6406,700,392.25,703,392.25,703,576.6406,378,576.6406,378,368.6406" style="stroke:#000000;stroke-width:1.5;"/><line style="stroke:#000000;stroke-width:1.5;" x1="378" x2="700" y1="392.25" y2="392.25"/><text fill="#000000" font-family="sans-serif" font-size="14" font-weight="bold" lengthAdjust="spacing" textLength="309" x="382" y="385.1738">MyBusiness/components/Table/components</text><!--MD5=[fb9cf3e339baa49657b38148895fa8a8]
cluster MyBusiness/Features/Franchise/components--><polygon fill="#FFFFFF" filter="url(#fyyxp3ifdwpmn)" points="1193,28.6406,1516,28.6406,1523,52.25,1526,52.25,1526,128.6406,1193,128.6406,1193,28.6406" style="stroke:#000000;stroke-width:1.5;"/><line style="stroke:#000000;stroke-width:1.5;" x1="1193" x2="1523" y1="52.25" y2="52.25"/><text fill="#000000" font-family="sans-serif" font-size="14" font-weight="bold" lengthAdjust="spacing" textLength="317" x="1197" y="45.1738">MyBusiness/Features/Franchise/components</text><!--MD5=[f633619e022b8e1313bcb4609c34f629]
entity SideBar--><rect fill="#FEFECE" filter="url(#fyyxp3ifdwpmn)" height="47.6094" style="stroke:#A80036;stroke-width:1.5;" width="90" x="120" y="64.6406"/><rect fill="#FEFECE" height="10" style="stroke:#A80036;stroke-width:1.5;" width="15" x="190" y="69.6406"/><rect fill="#FEFECE" height="2" style="stroke:#A80036;stroke-width:1.5;" width="4" x="188" y="71.6406"/><rect fill="#FEFECE" height="2" style="stroke:#A80036;stroke-width:1.5;" width="4" x="188" y="75.6406"/><text fill="#000000" font-family="sans-serif" font-size="14" lengthAdjust="spacing" textLength="50" x="135" y="99.1738">SideBar</text><!--MD5=[0d7f6108bf18c049dbeddcb93a0698de]
entity Button--><rect fill="#FEFECE" filter="url(#fyyxp3ifdwpmn)" height="47.6094" style="stroke:#A80036;stroke-width:1.5;" width="81" x="245.5" y="64.6406"/><rect fill="#FEFECE" height="10" style="stroke:#A80036;stroke-width:1.5;" width="15" x="306.5" y="69.6406"/><rect fill="#FEFECE" height="2" style="stroke:#A80036;stroke-width:1.5;" width="4" x="304.5" y="71.6406"/><rect fill="#FEFECE" height="2" style="stroke:#A80036;stroke-width:1.5;" width="4" x="304.5" y="75.6406"/><text fill="#000000" font-family="sans-serif" font-size="14" lengthAdjust="spacing" textLength="41" x="260.5" y="99.1738">Button</text><!--MD5=[5a6dc0c61a70888fbee77243dd682808]
entity Header--><rect fill="#FEFECE" filter="url(#fyyxp3ifdwpmn)" height="47.6094" style="stroke:#A80036;stroke-width:1.5;" width="86" x="362" y="64.6406"/><rect fill="#FEFECE" height="10" style="stroke:#A80036;stroke-width:1.5;" width="15" x="428" y="69.6406"/><rect fill="#FEFECE" height="2" style="stroke:#A80036;stroke-width:1.5;" width="4" x="426" y="71.6406"/><rect fill="#FEFECE" height="2" style="stroke:#A80036;stroke-width:1.5;" width="4" x="426" y="75.6406"/><text fill="#000000" font-family="sans-serif" font-size="14" lengthAdjust="spacing" textLength="46" x="377" y="99.1738">Header</text><!--MD5=[cd187d11655e4367e900de538d2f1d0c]
entity APP--><rect fill="#FEFECE" filter="url(#fyyxp3ifdwpmn)" height="47.6094" style="stroke:#A80036;stroke-width:1.5;" width="67" x="127.5" y="172.6406"/><rect fill="#FEFECE" height="10" style="stroke:#A80036;stroke-width:1.5;" width="15" x="174.5" y="177.6406"/><rect fill="#FEFECE" height="2" style="stroke:#A80036;stroke-width:1.5;" width="4" x="172.5" y="179.6406"/><rect fill="#FEFECE" height="2" style="stroke:#A80036;stroke-width:1.5;" width="4" x="172.5" y="183.6406"/><text fill="#000000" font-family="sans-serif" font-size="14" lengthAdjust="spacing" textLength="27" x="142.5" y="207.1738">APP</text><!--MD5=[761316dde56fde0d5236df87e36a5f2c]
entity Pagination--><rect fill="#FEFECE" filter="url(#fyyxp3ifdwpmn)" height="47.6094" style="stroke:#A80036;stroke-width:1.5;" width="107" x="229.5" y="172.6406"/><rect fill="#FEFECE" height="10" style="stroke:#A80036;stroke-width:1.5;" width="15" x="316.5" y="177.6406"/><rect fill="#FEFECE" height="2" style="stroke:#A80036;stroke-width:1.5;" width="4" x="314.5" y="179.6406"/><rect fill="#FEFECE" height="2" style="stroke:#A80036;stroke-width:1.5;" width="4" x="314.5" y="183.6406"/><text fill="#000000" font-family="sans-serif" font-size="14" lengthAdjust="spacing" textLength="67" x="244.5" y="207.1738">Pagination</text><!--MD5=[d5653c22919ae66c951f45dde7049d77]
entity Table--><rect fill="#FEFECE" filter="url(#fyyxp3ifdwpmn)" height="47.6094" style="stroke:#A80036;stroke-width:1.5;" width="76" x="372" y="172.6406"/><rect fill="#FEFECE" height="10" style="stroke:#A80036;stroke-width:1.5;" width="15" x="428" y="177.6406"/><rect fill="#FEFECE" height="2" style="stroke:#A80036;stroke-width:1.5;" width="4" x="426" y="179.6406"/><rect fill="#FEFECE" height="2" style="stroke:#A80036;stroke-width:1.5;" width="4" x="426" y="183.6406"/><text fill="#000000" font-family="sans-serif" font-size="14" lengthAdjust="spacing" textLength="36" x="387" y="207.1738">Table</text><!--MD5=[0417970af38da6be094d155eeeb61b05]
entity Select--><rect fill="#FEFECE" filter="url(#fyyxp3ifdwpmn)" height="47.6094" style="stroke:#A80036;stroke-width:1.5;" width="79" x="121.5" y="280.6406"/><rect fill="#FEFECE" height="10" style="stroke:#A80036;stroke-width:1.5;" width="15" x="180.5" y="285.6406"/><rect fill="#FEFECE" height="2" style="stroke:#A80036;stroke-width:1.5;" width="4" x="178.5" y="287.6406"/><rect fill="#FEFECE" height="2" style="stroke:#A80036;stroke-width:1.5;" width="4" x="178.5" y="291.6406"/><text fill="#000000" font-family="sans-serif" font-size="14" lengthAdjust="spacing" textLength="39" x="136.5" y="315.1738">Select</text><!--MD5=[fed7cd626dafefd1039e75941dbbfe23]
entity Checkbox--><rect fill="#FEFECE" filter="url(#fyyxp3ifdwpmn)" height="47.6094" style="stroke:#A80036;stroke-width:1.5;" width="102" x="236" y="280.6406"/><rect fill="#FEFECE" height="10" style="stroke:#A80036;stroke-width:1.5;" width="15" x="318" y="285.6406"/><rect fill="#FEFECE" height="2" style="stroke:#A80036;stroke-width:1.5;" width="4" x="316" y="287.6406"/><rect fill="#FEFECE" height="2" style="stroke:#A80036;stroke-width:1.5;" width="4" x="316" y="291.6406"/><text fill="#000000" font-family="sans-serif" font-size="14" lengthAdjust="spacing" textLength="62" x="251" y="315.1738">Checkbox</text><!--MD5=[30e4db011fc27b97f9164f51e7856559]
entity DirectOrder--><rect fill="#FEFECE" filter="url(#fyyxp3ifdwpmn)" height="47.6094" style="stroke:#A80036;stroke-width:1.5;" width="114" x="504" y="64.6406"/><rect fill="#FEFECE" height="10" style="stroke:#A80036;stroke-width:1.5;" width="15" x="598" y="69.6406"/><rect fill="#FEFECE" height="2" style="stroke:#A80036;stroke-width:1.5;" width="4" x="596" y="71.6406"/><rect fill="#FEFECE" height="2" style="stroke:#A80036;stroke-width:1.5;" width="4" x="596" y="75.6406"/><text fill="#000000" font-family="sans-serif" font-size="14" lengthAdjust="spacing" textLength="74" x="519" y="99.1738">DirectOrder</text><!--MD5=[59a7353a39f4b6bc605cf7d7768e061d]
entity StockReporing--><rect fill="#FEFECE" filter="url(#fyyxp3ifdwpmn)" height="47.6094" style="stroke:#A80036;stroke-width:1.5;" width="133" x="653.5" y="64.6406"/><rect fill="#FEFECE" height="10" style="stroke:#A80036;stroke-width:1.5;" width="15" x="766.5" y="69.6406"/><rect fill="#FEFECE" height="2" style="stroke:#A80036;stroke-width:1.5;" width="4" x="764.5" y="71.6406"/><rect fill="#FEFECE" height="2" style="stroke:#A80036;stroke-width:1.5;" width="4" x="764.5" y="75.6406"/><text fill="#000000" font-family="sans-serif" font-size="14" lengthAdjust="spacing" textLength="93" x="668.5" y="99.1738">StockReporing</text><!--MD5=[877b150588486ceeeab324b2692e0d13]
entity FixtureCatalog--><rect fill="#FEFECE" filter="url(#fyyxp3ifdwpmn)" height="47.6094" style="stroke:#A80036;stroke-width:1.5;" width="132" x="504" y="172.6406"/><rect fill="#FEFECE" height="10" style="stroke:#A80036;stroke-width:1.5;" width="15" x="616" y="177.6406"/><rect fill="#FEFECE" height="2" style="stroke:#A80036;stroke-width:1.5;" width="4" x="614" y="179.6406"/><rect fill="#FEFECE" height="2" style="stroke:#A80036;stroke-width:1.5;" width="4" x="614" y="183.6406"/><text fill="#000000" font-family="sans-serif" font-size="14" lengthAdjust="spacing" textLength="92" x="519" y="207.1738">FixtureCatalog</text><!--MD5=[a3949d61f58fbd688a15cb93c65a49a0]
entity Franchise--><rect fill="#FEFECE" filter="url(#fyyxp3ifdwpmn)" height="47.6094" style="stroke:#A80036;stroke-width:1.5;" width="103" x="671.5" y="172.6406"/><rect fill="#FEFECE" height="10" style="stroke:#A80036;stroke-width:1.5;" width="15" x="754.5" y="177.6406"/><rect fill="#FEFECE" height="2" style="stroke:#A80036;stroke-width:1.5;" width="4" x="752.5" y="179.6406"/><rect fill="#FEFECE" height="2" style="stroke:#A80036;stroke-width:1.5;" width="4" x="752.5" y="183.6406"/><text fill="#000000" font-family="sans-serif" font-size="14" lengthAdjust="spacing" textLength="63" x="686.5" y="207.1738">Franchise</text><!--MD5=[fee662a292a0353a69bd162820bae93b]
entity User--><rect fill="#FEFECE" filter="url(#fyyxp3ifdwpmn)" height="47.6094" style="stroke:#A80036;stroke-width:1.5;" width="69" x="126.5" y="404.6406"/><rect fill="#FEFECE" height="10" style="stroke:#A80036;stroke-width:1.5;" width="15" x="175.5" y="409.6406"/><rect fill="#FEFECE" height="2" style="stroke:#A80036;stroke-width:1.5;" width="4" x="173.5" y="411.6406"/><rect fill="#FEFECE" height="2" style="stroke:#A80036;stroke-width:1.5;" width="4" x="173.5" y="415.6406"/><text fill="#000000" font-family="sans-serif" font-size="14" lengthAdjust="spacing" textLength="29" x="141.5" y="439.1738">User</text><!--MD5=[d7ec2ad3d869f7d3839f606e256a0e07]
entity SearchBar--><rect fill="#FEFECE" filter="url(#fyyxp3ifdwpmn)" height="47.6094" style="stroke:#A80036;stroke-width:1.5;" width="107" x="230.5" y="404.6406"/><rect fill="#FEFECE" height="10" style="stroke:#A80036;stroke-width:1.5;" width="15" x="317.5" y="409.6406"/><rect fill="#FEFECE" height="2" style="stroke:#A80036;stroke-width:1.5;" width="4" x="315.5" y="411.6406"/><rect fill="#FEFECE" height="2" style="stroke:#A80036;stroke-width:1.5;" width="4" x="315.5" y="415.6406"/><text fill="#000000" font-family="sans-serif" font-size="14" lengthAdjust="spacing" textLength="67" x="245.5" y="439.1738">SearchBar</text><!--MD5=[6189534b01dac4062fc6edf21ccd2228]
entity Logo--><rect fill="#FEFECE" filter="url(#fyyxp3ifdwpmn)" height="47.6094" style="stroke:#A80036;stroke-width:1.5;" width="72" x="126" y="512.6406"/><rect fill="#FEFECE" height="10" style="stroke:#A80036;stroke-width:1.5;" width="15" x="178" y="517.6406"/><rect fill="#FEFECE" height="2" style="stroke:#A80036;stroke-width:1.5;" width="4" x="176" y="519.6406"/><rect fill="#FEFECE" height="2" style="stroke:#A80036;stroke-width:1.5;" width="4" x="176" y="523.6406"/><text fill="#000000" font-family="sans-serif" font-size="14" lengthAdjust="spacing" textLength="32" x="141" y="547.1738">Logo</text><!--MD5=[797317082b9a361b7a9289c805cb38a2]
entity AppName--><rect fill="#FEFECE" filter="url(#fyyxp3ifdwpmn)" height="47.6094" style="stroke:#A80036;stroke-width:1.5;" width="101" x="233.5" y="512.6406"/><rect fill="#FEFECE" height="10" style="stroke:#A80036;stroke-width:1.5;" width="15" x="314.5" y="517.6406"/><rect fill="#FEFECE" height="2" style="stroke:#A80036;stroke-width:1.5;" width="4" x="312.5" y="519.6406"/><rect fill="#FEFECE" height="2" style="stroke:#A80036;stroke-width:1.5;" width="4" x="312.5" y="523.6406"/><text fill="#000000" font-family="sans-serif" font-size="14" lengthAdjust="spacing" textLength="61" x="248.5" y="547.1738">AppName</text><!--MD5=[fbb286f9ae1f1ff97711324f0298205c]
entity CustomLink--><rect fill="#FEFECE" filter="url(#fyyxp3ifdwpmn)" height="47.6094" style="stroke:#A80036;stroke-width:1.5;" width="114" x="941" y="64.6406"/><rect fill="#FEFECE" height="10" style="stroke:#A80036;stroke-width:1.5;" width="15" x="1035" y="69.6406"/><rect fill="#FEFECE" height="2" style="stroke:#A80036;stroke-width:1.5;" width="4" x="1033" y="71.6406"/><rect fill="#FEFECE" height="2" style="stroke:#A80036;stroke-width:1.5;" width="4" x="1033" y="75.6406"/><text fill="#000000" font-family="sans-serif" font-size="14" lengthAdjust="spacing" textLength="74" x="956" y="99.1738">CustomLink</text><!--MD5=[e744b7bab9d7e152da9223cc9d256659]
entity TableHeader--><rect fill="#FEFECE" filter="url(#fyyxp3ifdwpmn)" height="47.6094" style="stroke:#A80036;stroke-width:1.5;" width="122" x="394" y="404.6406"/><rect fill="#FEFECE" height="10" style="stroke:#A80036;stroke-width:1.5;" width="15" x="496" y="409.6406"/><rect fill="#FEFECE" height="2" style="stroke:#A80036;stroke-width:1.5;" width="4" x="494" y="411.6406"/><rect fill="#FEFECE" height="2" style="stroke:#A80036;stroke-width:1.5;" width="4" x="494" y="415.6406"/><text fill="#000000" font-family="sans-serif" font-size="14" lengthAdjust="spacing" textLength="82" x="409" y="439.1738">TableHeader</text><!--MD5=[0236d02c95cc9643e339d451880b3f0b]
entity TableRow--><rect fill="#FEFECE" filter="url(#fyyxp3ifdwpmn)" height="47.6094" style="stroke:#A80036;stroke-width:1.5;" width="103" x="551.5" y="404.6406"/><rect fill="#FEFECE" height="10" style="stroke:#A80036;stroke-width:1.5;" width="15" x="634.5" y="409.6406"/><rect fill="#FEFECE" height="2" style="stroke:#A80036;stroke-width:1.5;" width="4" x="632.5" y="411.6406"/><rect fill="#FEFECE" height="2" style="stroke:#A80036;stroke-width:1.5;" width="4" x="632.5" y="415.6406"/><text fill="#000000" font-family="sans-serif" font-size="14" lengthAdjust="spacing" textLength="63" x="566.5" y="439.1738">TableRow</text><!--MD5=[99001022dc8060aadb6c82e8827fcc08]
entity TableData--><rect fill="#FEFECE" filter="url(#fyyxp3ifdwpmn)" height="47.6094" style="stroke:#A80036;stroke-width:1.5;" width="106" x="396" y="512.6406"/><rect fill="#FEFECE" height="10" style="stroke:#A80036;stroke-width:1.5;" width="15" x="482" y="517.6406"/><rect fill="#FEFECE" height="2" style="stroke:#A80036;stroke-width:1.5;" width="4" x="480" y="519.6406"/><rect fill="#FEFECE" height="2" style="stroke:#A80036;stroke-width:1.5;" width="4" x="480" y="523.6406"/><text fill="#000000" font-family="sans-serif" font-size="14" lengthAdjust="spacing" textLength="66" x="411" y="547.1738">TableData</text><!--MD5=[268bbbd3a36f6526d566fe28a4c8e239]
entity TableFooter--><rect fill="#FEFECE" filter="url(#fyyxp3ifdwpmn)" height="47.6094" style="stroke:#A80036;stroke-width:1.5;" width="118" x="537" y="512.6406"/><rect fill="#FEFECE" height="10" style="stroke:#A80036;stroke-width:1.5;" width="15" x="635" y="517.6406"/><rect fill="#FEFECE" height="2" style="stroke:#A80036;stroke-width:1.5;" width="4" x="633" y="519.6406"/><rect fill="#FEFECE" height="2" style="stroke:#A80036;stroke-width:1.5;" width="4" x="633" y="523.6406"/><text fill="#000000" font-family="sans-serif" font-size="14" lengthAdjust="spacing" textLength="78" x="552" y="547.1738">TableFooter</text><!--MD5=[dc7a634511acd0714ab5a400843cb364]
entity *Header--><rect fill="#FEFECE" filter="url(#fyyxp3ifdwpmn)" height="47.6094" style="stroke:#A80036;stroke-width:1.5;" width="99" x="1309.5" y="64.6406"/><rect fill="#FEFECE" height="10" style="stroke:#A80036;stroke-width:1.5;" width="15" x="1388.5" y="69.6406"/><rect fill="#FEFECE" height="2" style="stroke:#A80036;stroke-width:1.5;" width="4" x="1386.5" y="71.6406"/><rect fill="#FEFECE" height="2" style="stroke:#A80036;stroke-width:1.5;" width="4" x="1386.5" y="75.6406"/><ellipse cx="1330" cy="94.75" fill="#000000" rx="2.5" ry="2.5" style="stroke:#000000;stroke-width:0.0;"/><text fill="#000000" font-family="sans-serif" font-size="14" lengthAdjust="spacing" textLength="46" x="1337.5" y="99.1738">Header</text><!--MD5=[d869b34cafd04023b801a83c5d255696]
link SideBar to Button--><!--MD5=[87aede6a89e733ebef035f96f3881f6a]
link Button to Header--><!--MD5=[709fe301eb4593bf22e992c1478fd7c0]
link SideBar to APP--><!--MD5=[4c517e26a78f251ba1601a2f1cad5a45]
link APP to Pagination--><!--MD5=[8e7d5c02267e85af0f83e0acb5747301]
link Pagination to Table--><!--MD5=[97b595326b1e59a5053aa6d1df85fca4]
link APP to Select--><!--MD5=[f7f6c1a0c7667aeff760945d9e840682]
link Select to Checkbox--><!--MD5=[50b7b5e4b3e08ca38858dd6a36fd2309]
link DirectOrder to StockReporing--><!--MD5=[862c7b94e5c63dca4c30c26d44f5c2fa]
link DirectOrder to FixtureCatalog--><!--MD5=[3872980c4a2a61418e77421e68e3234e]
link FixtureCatalog to Franchise--><!--MD5=[fd59db6ceceb1684eef8f493f29982f2]
link User to SearchBar--><!--MD5=[c70e10a06ae205d12408e9d4b0a08cea]
link User to Logo--><!--MD5=[7cb5df9fed2acedbf0d7009a416332e8]
link Logo to AppName--><!--MD5=[3086289ad10ee799fad75fd5d9a00e60]
link TableHeader to TableRow--><!--MD5=[83bcb8df4815d41778bdeccc8a00cc4d]
link TableHeader to TableData--><!--MD5=[b26304fc8330243b90a8f2f97652315f]
link TableData to TableFooter--><!--MD5=[8887b3159c4a3001b5ccf3ab4e424dd3]
link Header to DirectOrder--><!--MD5=[4a55b10a0b2ec960e08a5f9517b48d99]
link Select to User--><!--MD5=[7babcc21b8b4ff24dfa1c47cea4cda41]
link SearchBar to TableHeader--><!--MD5=[ed70d857219f4cbfbe03446ec07f862b]
@startuml listOfComponents
title Découpage composants en référence à notre IHM

package "My business/components" {
  [SideBar] 
  [Button]
  [Header]
  [APP]  
  [Pagination]
  [Table]
  [Select]
  [Checkbox]
}
package "MyBusiness/Features" {
  [DirectOrder]
  [StockReporing]
  [FixtureCatalog]
  [Franchise] 
}
package "MyBusiness/components/Header/components" {
  [User]
  [SearchBar]
  [Logo]
  [AppName]
}
package "MyBusiness/components/SideBar/components" {
  [CustomLink]
}
package "MyBusiness/components/Table/components" {
  [TableHeader]
  [TableRow]
  [TableData]
  [TableFooter]
}
package "MyBusiness/Features/Franchise/components" {
  [*Header]
}
@enduml

PlantUML version 1.2021.7(Sun May 23 14:40:07 CEST 2021)
(GPL source distribution)
Java Runtime: Java(TM) SE Runtime Environment
JVM: Java HotSpot(TM) 64-Bit Server VM
Default Encoding: Cp1252
Language: fr
Country: FR
--></g></svg>